<?xml version="1.0" standalone="no"?>
<!DOCTYPE svg PUBLIC "-//W3C//DTD SVG 20010904//EN"
 "http://www.w3.org/TR/2001/REC-SVG-20010904/DTD/svg10.dtd">
<svg version="1.0" xmlns="http://www.w3.org/2000/svg"
 width="512.000000pt" height="512.000000pt" viewBox="0 0 512.000000 512.000000"
 preserveAspectRatio="xMidYMid meet">

<g transform="translate(0.000000,512.000000) scale(0.100000,-0.100000)"
fill="#000000" stroke="none">
<path d="M2310 4412 c-47 -23 -60 -53 -60 -145 0 -119 27 -157 110 -157 33 0
48 6 71 29 28 28 29 33 29 126 0 108 -11 137 -62 154 -41 14 -47 14 -88 -7z"/>
<path d="M1239 4061 c-40 -41 -40 -91 2 -155 51 -77 86 -106 125 -106 104 0
145 90 83 184 -56 83 -85 106 -136 106 -36 0 -50 -6 -74 -29z"/>
<path d="M3329 3981 c-100 -19 -209 -54 -305 -100 l-102 -49 -113 39 c-160 54
-274 72 -454 72 -155 0 -262 -14 -398 -54 -256 -75 -503 -242 -673 -453 -614
-761 -281 -1890 649 -2201 150 -50 268 -69 437 -69 289 1 542 78 790 243 99
65 276 237 344 333 38 54 53 68 79 72 133 19 193 32 267 58 322 112 566 359
676 682 42 123 26 191 -52 216 -29 10 -48 9 -112 -8 -110 -29 -178 -35 -252
-22 -106 18 -187 49 -265 101 -185 124 -285 308 -285 522 0 153 47 283 145
403 38 45 55 75 55 95 0 93 -56 121 -250 125 -74 2 -156 -1 -181 -5z m111
-205 c0 -2 -13 -32 -29 -67 -46 -102 -66 -207 -65 -349 0 -186 38 -312 139
-466 108 -161 270 -285 455 -345 83 -27 110 -32 212 -33 65 0 118 -5 118 -10
0 -23 -116 -180 -172 -232 -278 -257 -676 -316 -1008 -149 -231 116 -411 350
-465 605 -22 104 -19 276 5 380 40 164 155 356 276 456 139 116 309 189 484
207 19 2 38 5 43 5 4 1 7 0 7 -2z m-810 -61 c41 -9 78 -20 82 -24 4 -3 -18
-35 -48 -71 -317 -373 -350 -897 -83 -1310 62 -96 238 -265 337 -324 92 -54
227 -109 315 -127 31 -6 57 -16 57 -21 0 -18 -206 -215 -269 -258 -200 -134
-415 -200 -651 -200 -323 0 -607 117 -835 345 -229 228 -348 513 -348 835 0
319 118 605 343 830 174 175 362 277 608 331 113 24 377 21 492 -6z"/>
<path d="M641 3193 c-23 -11 -40 -31 -53 -60 -18 -40 -18 -45 -3 -77 18 -37
33 -47 119 -76 88 -30 121 -27 162 14 37 37 44 74 22 120 -15 35 -41 50 -125
75 -84 25 -79 25 -122 4z"/>
<path d="M690 2139 c-43 -13 -75 -31 -94 -51 -25 -27 -28 -37 -23 -76 10 -92
82 -121 206 -83 82 25 111 54 111 111 0 45 -30 87 -76 106 -42 17 -45 17 -124
-7z"/>
<path d="M1336 1315 c-53 -28 -126 -134 -126 -184 0 -71 64 -119 133 -100 33
9 91 72 125 136 27 49 3 121 -48 148 -36 19 -48 19 -84 0z"/>
<path d="M3280 1307 c-14 -7 -33 -29 -43 -50 -15 -30 -17 -43 -8 -70 17 -50
101 -149 135 -158 37 -10 100 14 114 44 29 61 22 92 -37 170 -56 74 -103 93
-161 64z"/>
<path d="M2297 999 c-32 -19 -47 -65 -47 -146 0 -93 13 -122 64 -147 32 -16
44 -17 76 -7 58 17 70 44 70 156 0 93 -1 98 -29 126 -24 23 -38 29 -73 29 -24
0 -51 -5 -61 -11z"/>
</g>
</svg>
